<?xml version="1.0" encoding="UTF-8" standalone="no"?>
<!DOCTYPE svg PUBLIC "-//W3C//DTD SVG 1.1//EN"
 "http://www.w3.org/Graphics/SVG/1.1/DTD/svg11.dtd">
<!-- Generated by graphviz version 2.26.3 (20100126.1600)
 -->
<!-- Title: G Pages: 1 -->
<svg width="166pt" height="854pt"
 viewBox="0.00 0.00 166.00 854.00" xmlns="http://www.w3.org/2000/svg" xmlns:xlink="http://www.w3.org/1999/xlink">
<g id="graph1" class="graph" transform="scale(1 1) rotate(0) translate(4 850)">
<title>G</title>
<polygon fill="white" stroke="white" points="-4,5 -4,-850 163,-850 163,5 -4,5"/>
<g id="graph2" class="cluster"><title>cluster_Global</title>
<polyline fill="none" stroke="gray" points="20,-8 138,-8 "/>
<path fill="none" stroke="gray" d="M138,-8C144,-8 150,-14 150,-20"/>
<polyline fill="none" stroke="gray" points="150,-20 150,-826 "/>
<path fill="none" stroke="gray" d="M150,-826C150,-832 144,-838 138,-838"/>
<polyline fill="none" stroke="gray" points="138,-838 20,-838 "/>
<path fill="none" stroke="gray" d="M20,-838C14,-838 8,-832 8,-826"/>
<polyline fill="none" stroke="gray" points="8,-826 8,-20 "/>
<path fill="none" stroke="gray" d="M8,-20C8,-14 14,-8 20,-8"/>
<text text-anchor="middle" x="79" y="-824.1" font-family="Times Roman,serif" font-size="11.00" fill="gray">\</text>
</g>
<!-- \\Intervention -->
<g id="node2" class="node"><title>\\Intervention</title>
<polygon fill="none" stroke="black" points="119,-808 39,-808 39,-772 119,-772 119,-808"/>
<text text-anchor="middle" x="79" y="-787.1" font-family="Times Roman,serif" font-size="11.00">Intervention</text>
</g>
<!-- \\Station -->
<g id="node3" class="node"><title>\\Station</title>
<polygon fill="none" stroke="black" points="107,-754 51,-754 51,-718 107,-718 107,-754"/>
<text text-anchor="middle" x="79" y="-733.1" font-family="Times Roman,serif" font-size="11.00">Station</text>
</g>
<!-- \\User -->
<g id="node4" class="node"><title>\\User</title>
<polygon fill="none" stroke="black" points="106,-700 52,-700 52,-664 106,-664 106,-700"/>
<text text-anchor="middle" x="79" y="-679.1" font-family="Times Roman,serif" font-size="11.00">User</text>
</g>
<!-- \\Velo -->
<g id="node5" class="node"><title>\\Velo</title>
<polygon fill="none" stroke="black" points="106,-646 52,-646 52,-610 106,-610 106,-646"/>
<text text-anchor="middle" x="79" y="-625.1" font-family="Times Roman,serif" font-size="11.00">Velo</text>
</g>
<!-- \\OdbBonIntervention -->
<g id="node6" class="node"><title>\\OdbBonIntervention</title>
<polygon fill="none" stroke="black" points="141,-592 17,-592 17,-556 141,-556 141,-592"/>
<text text-anchor="middle" x="79" y="-571.1" font-family="Times Roman,serif" font-size="11.00">OdbBonIntervention</text>
</g>
<!-- \\OdbDemandeInter -->
<g id="node7" class="node"><title>\\OdbDemandeInter</title>
<polygon fill="none" stroke="black" points="137,-538 21,-538 21,-502 137,-502 137,-538"/>
<text text-anchor="middle" x="79" y="-517.1" font-family="Times Roman,serif" font-size="11.00">OdbDemandeInter</text>
</g>
<!-- \\OdbEtat -->
<g id="node8" class="node"><title>\\OdbEtat</title>
<polygon fill="none" stroke="black" points="110,-484 48,-484 48,-448 110,-448 110,-484"/>
<text text-anchor="middle" x="79" y="-463.1" font-family="Times Roman,serif" font-size="11.00">OdbEtat</text>
</g>
<!-- \\OdbProduit -->
<g id="node9" class="node"><title>\\OdbProduit</title>
<polygon fill="none" stroke="black" points="117,-430 41,-430 41,-394 117,-394 117,-430"/>
<text text-anchor="middle" x="79" y="-409.1" font-family="Times Roman,serif" font-size="11.00">OdbProduit</text>
</g>
<!-- \\OdbStation -->
<g id="node10" class="node"><title>\\OdbStation</title>
<polygon fill="none" stroke="black" points="118,-376 40,-376 40,-340 118,-340 118,-376"/>
<text text-anchor="middle" x="79" y="-355.1" font-family="Times Roman,serif" font-size="11.00">OdbStation</text>
</g>
<!-- \\OdbTechnicien -->
<g id="node11" class="node"><title>\\OdbTechnicien</title>
<polygon fill="none" stroke="black" points="126,-322 32,-322 32,-286 126,-286 126,-322"/>
<text text-anchor="middle" x="79" y="-301.1" font-family="Times Roman,serif" font-size="11.00">OdbTechnicien</text>
</g>
<!-- \\OdbUser -->
<g id="node12" class="node"><title>\\OdbUser</title>
<polygon fill="none" stroke="black" points="111,-268 47,-268 47,-232 111,-232 111,-268"/>
<text text-anchor="middle" x="79" y="-247.1" font-family="Times Roman,serif" font-size="11.00">OdbUser</text>
</g>
<!-- \\OdbVelo -->
<g id="node13" class="node"><title>\\OdbVelo</title>
<polygon fill="none" stroke="black" points="109,-214 49,-214 49,-178 109,-178 109,-214"/>
<text text-anchor="middle" x="79" y="-193.1" font-family="Times Roman,serif" font-size="11.00">OdbVelo</text>
</g>
<!-- \\Menu -->
<g id="node14" class="node"><title>\\Menu</title>
<polygon fill="none" stroke="black" points="106,-160 52,-160 52,-124 106,-124 106,-160"/>
<text text-anchor="middle" x="79" y="-139.1" font-family="Times Roman,serif" font-size="11.00">Menu</text>
</g>
<!-- \\Nosql -->
<g id="node15" class="node"><title>\\Nosql</title>
<polygon fill="none" stroke="black" points="106,-106 52,-106 52,-70 106,-70 106,-106"/>
<text text-anchor="middle" x="79" y="-85.1" font-family="Times Roman,serif" font-size="11.00">Nosql</text>
</g>
<!-- \\Bdd -->
<g id="node16" class="node"><title>\\Bdd</title>
<polygon fill="none" stroke="black" points="106,-52 52,-52 52,-16 106,-16 106,-52"/>
<text text-anchor="middle" x="79" y="-31.1" font-family="Times Roman,serif" font-size="11.00">Bdd</text>
</g>
</g>
</svg>
